<svg width="80" height="120" viewBox="0 0 80 120" xmlns="http://www.w3.org/2000/svg">
  <defs>
    <linearGradient id="pinGradient" x1="0%" y1="0%" x2="0%" y2="100%">
      <stop offset="0%" stop-color="#0ea5e9"/>
      <stop offset="100%" stop-color="#22d3ee"/>
    </linearGradient>
    <filter id="pinShadow" x="-40%" y="-40%" width="180%" height="180%">
      <feDropShadow dx="0" dy="6" stdDeviation="8" flood-color="#0b1120" flood-opacity="0.18"/>
    </filter>
  </defs>
  <g filter="url(#pinShadow)">
    <path d="M40 0C22.4 0 8 14.4 8 32c0 17.6 20.7 45 28.9 57.7 4.8 6.7 10.5 13.4 12.4 15.9.6.7 1.7.7 2.3 0 1.9-2.5 7.6-9.2 12.4-15.9C51.3 77 72 49.6 72 32 72 14.4 57.6 0 40 0z" fill="url(#pinGradient)"/>
    <circle cx="40" cy="32" r="20" fill="#ffffff" opacity="0.92"/>
    <circle cx="40" cy="28" r="8" fill="#0b1120"/>
    <path d="M30 52c0-5.5 4.5-10 10-10s10 4.5 10 10v12H30V52z" fill="#0b1120"/>
    <path d="M22 76c1.6-8 8.5-14 16.5-14s14.9 6 16.5 14" fill="none" stroke="#0b1120" stroke-width="6" stroke-linecap="round"/>
    <path d="M32 54c3.5-2.8 6.8-4 12-4s8.5 1.2 12 4" fill="none" stroke="#ffffff" stroke-width="2" opacity="0.4"/>
  </g>
</svg>
